P3
4 4
255
255 50 50 50 255 50 50 50 255 255 255 255 
255 255 50 255 50 255 50 255 255 178 178 178 
255 178 50 178 255 50 178 50 255 255 178 178 
178 255 178 178 178 255 255 255 178 50 50 50 
