P3
4 4
255
76 76 76 149 149 149 29 29 29 255 255 255 
225 225 225 105 105 105 178 178 178 127 127 127 
151 151 151 187 187 187 67 67 67 165 165 165 
202 202 202 142 142 142 240 240 240 0 0 0 
